<svg width="187" height="66" viewBox="0 0 187 66" fill="none" xmlns="http://www.w3.org/2000/svg">
<path d="M118.117 62.5439L118.029 62.5439C118.039 61.2782 118.356 60.0307 118.819 58.8597C118.979 58.4613 119.177 58.0696 119.488 57.7681C120.54 56.7049 121.874 55.9887 123.205 55.3463C124.452 52.9326 125.2 50.2296 125.154 47.4988C125.127 44.5857 124.219 41.7431 122.868 39.1864C121.171 35.9996 118.873 33.1821 116.419 30.5583C115.484 29.571 114.371 28.764 113.171 28.1338C110.804 26.885 108.17 26.2595 105.793 25.0351C103.666 23.8994 101.646 22.5726 99.7013 21.1489C97.6077 19.6094 95.5964 17.958 93.6726 16.2091C93.583 16.1447 93.4704 15.9895 93.374 16.1352C89.5697 19.585 85.526 22.845 80.9405 25.1902C78.4748 26.4486 75.8615 27.4318 73.1538 28.0098C72.9914 28.043 72.8296 28.104 72.7184 28.2348C71.8199 29.1821 70.9146 30.124 70.0128 31.0686C69.3893 31.7008 68.8082 32.3743 68.1706 32.9917C69.5827 31.3132 71.1054 29.7316 72.6085 28.1358C70.6153 28.5506 68.5608 28.7044 66.5333 28.493C66.3419 28.4774 66.1282 28.432 65.957 28.5512C62.3575 30.7433 58.5101 32.5038 54.9969 34.8409C58.4366 32.4292 62.0603 30.2798 65.833 28.4367C62.9682 27.9 60.1952 26.9825 57.412 26.1335C54.7401 25.3183 52.0513 24.5099 49.281 24.1088C47.5635 23.8628 45.813 23.7747 44.0874 23.9929C42.6321 24.1752 41.1998 24.5831 39.8867 25.2451C39.3583 25.4911 38.8763 25.8245 38.3701 26.1118C39.5854 25.2194 40.9659 24.5858 42.3571 24.0234C39.5457 24.3839 36.6985 24.1047 33.922 23.6033C32.8125 23.4074 31.7145 23.152 30.6111 22.9236C30.5221 23.0083 30.4311 23.0923 30.3395 23.1764C30.2222 23.0063 30.1258 22.7732 29.8899 22.7508C27.739 22.2575 25.5975 21.7242 23.4325 21.2946C21.4015 20.905 19.3335 20.6102 17.2608 20.7064C15.5609 20.7864 13.8448 21.1754 12.3699 22.0542C11.4963 22.5374 10.7556 23.2218 10.0782 23.9495C10.8964 22.9338 11.9331 22.1078 13.0467 21.4403C14.8423 20.3914 16.9865 20.1989 19.0214 20.3026C21.175 20.4164 23.2943 20.8474 25.398 21.298C26.8708 21.6253 28.3409 21.9594 29.811 22.2968C29.2434 21.1591 28.7878 19.9624 28.4804 18.7271C28.3733 18.2772 28.2371 17.8198 28.2971 17.3516C28.4359 15.8635 28.9563 14.4337 29.6337 13.1117C29.8703 12.7038 30.0361 12.2227 30.4419 11.9476C30.4075 12.4592 30.233 12.9701 30.3361 13.4837C30.5282 14.6221 31.0081 15.6792 31.4038 16.7546C31.8237 17.8693 32.2174 19.0592 32.032 20.2667C31.9181 21.1239 31.4719 21.8875 30.9488 22.557C33.55 23.1106 36.1727 23.6175 38.8325 23.7686C40.5432 23.8621 42.2688 23.8194 43.9593 23.5253C44.7709 23.4129 45.5784 23.2143 46.4014 23.2258C45.9174 23.1276 45.5959 22.7312 45.2245 22.4398C44.4811 21.8523 43.6129 21.4593 42.7716 21.0371C42.5533 20.9551 42.5647 20.7058 42.5641 20.5126C42.3861 20.3148 42.2048 20.1196 42.0295 19.9184C42.0511 19.7889 42.1111 19.6568 42.0801 19.524C41.9702 19.3072 41.7673 19.1418 41.7019 18.9006C41.7026 18.7007 41.7902 18.5123 41.7922 18.3124C41.7633 18.122 41.6548 17.9445 41.6635 17.748C41.7134 17.6192 41.801 17.5094 41.8745 17.3949C41.7916 17.0812 41.5759 16.7437 41.7545 16.4232C41.9486 16.1366 41.6352 15.8296 41.7464 15.5288C41.7909 15.3865 41.8549 15.2516 41.9129 15.1141C41.8233 14.8945 41.7451 14.6702 41.6837 14.4398C41.7397 14.3443 41.7929 14.2474 41.8435 14.1498C41.6891 13.998 41.5382 13.8422 41.4074 13.6673C41.5024 13.4573 41.6109 13.2438 41.617 13.008C41.6251 12.7153 41.5793 12.4239 41.5853 12.1298C41.8179 12.1746 42.0949 12.2274 42.225 12.4483C42.2958 12.6685 42.2088 12.903 42.1825 13.1239C42.4818 13.1679 42.7858 13.2032 43.0642 13.3251C43.0824 13.4763 43.0864 13.6287 43.1289 13.7744C43.4868 13.8544 43.8555 13.7961 44.2168 13.7927C44.2276 13.8916 44.237 13.9906 44.2451 14.0888C44.5336 14.143 44.843 14.1383 45.1093 14.2718C45.1571 14.3938 45.1409 14.5388 45.2097 14.6492C45.4389 14.8383 45.7584 14.8376 46.0064 14.9894C46.0294 15.1337 46.0172 15.2814 46.0469 15.4237C46.4634 15.8161 47.0094 16.0417 47.4138 16.4517C47.8594 16.8515 48.0367 17.4606 48.0919 18.0393C48.1654 18.904 48.1108 19.7761 47.9827 20.6333C47.858 21.3258 47.7219 22.0407 47.3417 22.6451C47.2069 22.8748 46.9973 23.0463 46.7688 23.1777C48.398 23.0883 50.0359 23.2279 51.6348 23.5511C54.1968 24.0376 56.5843 25.1455 59.0985 25.8062C58.1913 25.0906 57.313 24.3283 56.5607 23.4447C54.8014 21.4281 53.5342 18.9643 52.9943 16.3324C52.6802 14.7712 52.6283 13.1449 52.9417 11.5782C53.183 10.3551 53.6522 9.17338 54.3478 8.13934C55.032 7.10868 55.9372 6.23387 56.9652 5.55422C58.0976 4.80478 59.3702 4.28302 60.6825 3.9503C61.6417 3.69077 62.6292 3.56813 63.6133 3.45564L64.6136 3.45564C66.6311 3.52002 68.6822 4.00926 70.372 5.15511C72.0882 6.29351 73.3318 8.08174 73.9135 10.055C74.7163 12.737 74.4393 15.6595 73.4794 18.2623C73.931 16.5283 74.2263 14.738 74.1467 12.9403C74.0685 10.8769 73.4909 8.76546 72.1718 7.14663C71.404 6.1966 70.3956 5.45191 69.2781 4.97148C67.909 4.37652 66.4052 4.15562 64.921 4.16037C62.4257 4.13665 59.9478 4.94029 57.894 6.35585C56.064 7.59453 54.612 9.39022 53.7971 11.4522C53.2168 12.9274 53.0381 14.5584 53.2916 16.1244C53.6556 18.4581 54.8655 20.5736 56.3713 22.3537C58.0019 24.2958 60.0975 25.8618 62.4775 26.7406C61.6673 25.5006 60.9973 24.1711 60.4399 22.7982C59.9627 21.5541 59.5023 20.2545 59.5394 18.9026C59.6465 17.5637 60.0476 16.2674 60.5147 15.0158C60.9508 13.8862 61.4132 12.7343 62.1695 11.7795C62.2956 12.117 62.1641 12.4734 62.1352 12.8156C61.9761 13.9282 62.4048 15.0043 62.8126 16.0146C63.3815 17.4017 64.0056 18.7725 64.4134 20.2192C64.7356 21.3915 64.8293 22.6634 64.4444 23.8323C64.0744 24.9517 63.3943 25.9587 62.5335 26.7562C64.0528 27.3112 65.6678 27.5721 67.2802 27.6161C70.2784 27.6852 73.2442 26.9886 76.0428 25.9505C78.5968 24.9965 81.0328 23.7469 83.3644 22.3354C85.6824 20.9206 87.9095 19.3539 90.0193 17.6409C90.9555 16.9192 91.8352 16.1271 92.7364 15.3621C90.9852 13.79 89.1113 12.3575 87.4309 10.7062C86.6207 9.88489 85.8024 9.03448 85.2928 7.98282C86.1833 8.13528 86.9261 8.69499 87.6325 9.22489C89.7301 10.883 91.5352 12.8698 93.4778 14.7007C94.8866 13.3794 96.2118 11.9699 97.6394 10.6682C98.511 9.8876 99.3832 9.09411 100.387 8.48629C100.78 8.24709 101.207 8.05871 101.663 7.98214C101.169 9.0128 100.371 9.84695 99.5793 10.6499C97.8801 12.3189 95.984 13.7649 94.2213 15.3628C98.4584 19.1086 103.112 22.4473 108.27 24.7884C111.048 26.0298 113.986 26.9744 117.02 27.2882C119.44 27.5375 121.928 27.36 124.238 26.5638C123.537 25.811 122.899 24.9653 122.574 23.9753C122.173 22.8518 122.183 21.6145 122.468 20.4645C122.823 19.0239 123.471 17.6822 124.02 16.3107C124.386 15.4244 124.772 14.5205 124.85 13.5535C124.892 13.0284 124.754 12.5147 124.719 11.9943C124.699 11.8757 124.873 11.7666 124.918 11.9211C125.865 13.313 126.454 14.9135 126.944 16.5154C127.234 17.5745 127.532 18.6763 127.377 19.7829C127.233 20.9016 126.847 21.9689 126.431 23.0104C125.935 24.186 125.369 25.3359 124.684 26.412C127.038 25.5209 129.139 24.0098 130.803 22.1213C132.244 20.4984 133.339 18.511 133.686 16.3473C133.92 14.9216 133.806 13.4437 133.371 12.0668C132.844 10.4324 131.911 8.9403 130.722 7.7111C128.768 5.77853 126.145 4.57576 123.437 4.22204C120.783 3.89001 117.99 4.57034 115.858 6.21288C114.075 7.56473 112.785 9.61317 112.506 11.8574C112.312 13.2303 112.582 14.6059 112.83 15.9523C112.686 15.318 112.526 14.6858 112.427 14.0421C112.204 12.6374 112.184 11.1812 112.537 9.79545C112.827 8.63333 113.398 7.53898 114.212 6.66011C115.044 5.75075 116.108 5.07584 117.246 4.62319C119.459 3.75109 121.91 3.6359 124.243 3.99097C126.881 4.40703 129.464 5.43769 131.526 7.16697C133.024 8.41988 134.205 10.1112 134.655 12.0336C135.047 13.6525 134.908 15.3668 134.416 16.947C133.862 18.7427 132.904 20.3859 131.792 21.8875C130.61 23.4894 129.167 24.8955 127.524 26.0163C130.253 25.1137 133.049 24.3561 135.914 24.0695C135.684 24.1108 135.454 24.1474 135.225 24.1921C132.545 24.7674 129.964 25.7093 127.382 26.6112C125.331 27.3329 123.262 28.0301 121.123 28.4367C122.671 29.1956 124.198 29.9986 125.693 30.8578C127.685 32.0118 129.65 33.2214 131.531 34.5515C130.081 33.6347 128.599 32.7687 127.089 31.9536C125.092 30.8524 123.059 29.8143 121.116 28.6183C120.997 28.5553 120.879 28.4598 120.735 28.4719C118.628 28.661 116.471 28.7145 114.398 28.2206C116.168 29.9559 117.974 31.6534 119.688 33.4457C121.371 35.2258 122.949 37.1448 124.062 39.3437C125.374 41.9071 125.964 44.8405 125.731 47.715C125.519 50.4369 124.587 53.0742 123.188 55.4046C123.371 56.4061 123.293 57.5038 122.718 58.3698C122.091 59.3591 121.022 59.9073 120.071 60.5267C119.595 60.854 119.083 61.146 118.687 61.5756C118.428 61.8535 118.301 62.218 118.117 62.5439ZM46.7283 22.6539C46.7877 22.1572 46.6987 21.6565 46.5612 21.1801C46.1399 19.774 45.4422 18.4717 44.6846 17.2228C44.1339 16.2748 43.4915 15.3858 42.8761 14.4798C43.0413 14.7888 43.2354 15.0802 43.412 15.3817C44.0739 16.4605 44.6556 17.586 45.2528 18.7014C45.7449 19.6494 46.2841 20.5858 46.574 21.6219C46.6771 21.958 46.6448 22.3151 46.7283 22.6539Z" fill="black"/>
<path d="M68.9282 62.5439L68.8386 62.5439C68.6134 62.1096 68.4112 61.64 68.0169 61.3283C67.3213 60.7645 66.5394 60.3227 65.7939 59.8308C65.0828 59.3693 64.4074 58.7899 64.0366 58.008C63.6531 57.2328 63.616 56.3329 63.7549 55.4913C62.8773 54.1727 62.121 52.7578 61.6559 51.2365C61.122 49.5554 60.9542 47.7604 61.1557 46.008C61.451 43.4541 62.4749 41.0391 63.7967 38.8578C63.3882 39.8112 63.0006 40.7761 62.727 41.779C62.2578 43.4426 61.9943 45.1644 61.945 46.8923C61.8702 49.6204 62.3117 52.4061 63.5183 54.8692C63.6349 55.1003 63.7373 55.3754 64.0002 55.4723C65.0416 55.9575 66.0581 56.5192 66.9411 57.2626C67.3651 57.6312 67.7837 58.0364 68.0068 58.5636C68.5609 59.8145 68.908 61.1711 68.9282 62.5439Z" fill="black"/>
<path d="M129.285 61.5703C128.683 61.428 128.151 61.0926 127.636 60.7619C126.828 60.2158 126.028 59.6018 125.506 58.7602C125.035 58.0237 124.832 57.157 124.683 56.3045C124.566 55.593 124.466 54.8741 124.46 54.1517C124.958 54.2568 125.465 54.3652 125.91 54.6247C126.569 55.0083 127.105 55.6052 127.411 56.3066C127.999 57.672 127.934 59.223 128.55 60.5783C128.72 60.9605 129.033 61.2457 129.285 61.5703Z" fill="black"/>
<path d="M59.3118 60.7673C58.7995 61.0967 58.2691 61.4273 57.6705 61.5703C57.8956 61.2728 58.199 61.033 58.3587 60.6894C58.5616 60.2686 58.6512 59.8065 58.7591 59.3552C59.0159 58.3252 59.0847 57.2363 59.5457 56.2666C59.8848 55.5246 60.4786 54.9019 61.218 54.5576C61.6225 54.3598 62.0586 54.2385 62.498 54.1524C62.4866 54.9208 62.3781 55.6845 62.2473 56.4407C62.1004 57.2376 61.9029 58.0453 61.4674 58.7372C60.9437 59.5944 60.1288 60.2117 59.3118 60.7673Z" fill="black"/>
<path d="M119.598 55.1047C118.816 55.5621 117.952 55.9761 117.024 55.9402C116.183 55.9185 115.413 55.512 114.747 55.0227C115.486 54.4047 116.248 53.8091 117.09 53.3375C117.853 52.9099 118.688 52.5142 119.583 52.5426C120.456 52.5833 121.319 52.7486 122.163 52.9743C122.609 53.099 123.06 53.2358 123.453 53.4906C123.068 53.6268 122.641 53.4805 122.264 53.6444C121.318 54.0171 120.472 54.5938 119.598 55.1047Z" fill="black"/>
<path d="M72.2085 55.0228C71.5203 55.5317 70.7134 55.9484 69.8385 55.9423C68.8847 55.9484 68.0125 55.4937 67.2124 55.018C66.4177 54.5451 65.6385 54.0335 64.7811 53.6797C64.3821 53.4839 63.9278 53.5978 63.5038 53.5232C63.6177 53.4019 63.762 53.3199 63.915 53.263C64.6477 52.9791 65.4168 52.8022 66.1885 52.6694C66.9475 52.5508 67.7456 52.4458 68.4871 52.7087C69.885 53.1824 71.0862 54.0843 72.2085 55.0228Z" fill="black"/>
<path d="M145.285 51.7412C145.099 51.6978 144.867 51.7114 144.734 51.5461C144.625 51.3888 144.707 51.189 144.725 51.0155C144.534 51.0141 144.325 51.0731 144.143 50.9931C144.052 50.8759 143.996 50.7349 143.926 50.6048C143.687 50.6408 143.449 50.6841 143.209 50.7126C143.196 50.655 143.167 50.5398 143.154 50.4822C142.975 50.489 142.793 50.5357 142.614 50.5093C142.509 50.4382 142.515 50.2931 142.472 50.1854C142.283 50.1068 142.073 50.0973 141.882 50.0221C141.794 49.9293 141.802 49.7809 141.765 49.6616C141.337 49.4549 140.895 49.2544 140.537 48.9325C140.043 48.3504 139.934 47.5562 139.912 46.8176C139.898 46.077 139.923 45.3032 140.251 44.6249C140.352 44.3843 140.561 44.1919 140.807 44.1119C141.185 44.1139 141.482 44.387 141.8 44.5551C142.428 44.9671 143.172 45.1263 143.833 45.4692C143.796 45.7843 144.1 45.911 144.275 46.1075C144.322 46.2179 144.253 46.3569 144.334 46.4558C144.444 46.6035 144.57 46.7384 144.682 46.884C144.644 46.9979 144.599 47.111 144.582 47.231C144.627 47.3916 144.721 47.5312 144.796 47.6775C144.732 47.7731 144.663 47.8673 144.617 47.9743C144.666 48.1959 144.87 48.3978 144.773 48.6343C144.691 48.8532 144.79 49.0694 144.871 49.2713C144.836 49.3634 144.8 49.4563 144.763 49.5478C144.909 49.7531 145.021 50.0018 144.892 50.2471C145.007 50.3616 145.124 50.4741 145.239 50.5879C145.086 50.964 145.148 51.3719 145.285 51.7412ZM143.988 49.955C143.388 49.11 142.762 48.2833 142.185 47.4228C141.791 46.8359 141.359 46.2694 141.047 45.6332C140.878 45.293 140.813 44.9142 140.687 44.5578C140.72 45.007 140.873 45.4367 141.053 45.8453C141.48 46.7851 142.058 47.6511 142.712 48.4466C143.146 48.942 143.547 49.4664 143.988 49.955Z" fill="black"/>
<path d="M42.2035 51.5704C42.0633 51.7093 41.8503 51.6998 41.6696 51.7432C41.8085 51.3739 41.8698 50.968 41.7175 50.5919C41.826 50.4882 41.9339 50.3845 42.0397 50.2802C41.9588 50.0247 42.0478 49.7699 42.1907 49.5578C42.157 49.4616 42.1219 49.3661 42.0855 49.2699C42.2163 49.0144 42.2554 48.7278 42.1354 48.4601C42.2075 48.3015 42.2965 48.1491 42.3369 47.979C42.3032 47.8645 42.2244 47.7716 42.1583 47.6734C42.2372 47.5291 42.3295 47.3901 42.3747 47.2309C42.3592 47.1116 42.3127 46.9992 42.2736 46.8846C42.438 46.6441 42.7623 46.4523 42.6578 46.1149C42.858 45.9333 43.1519 45.7855 43.1222 45.4691C43.7059 45.1642 44.355 45.009 44.9314 44.6878C45.3257 44.4899 45.6641 44.1545 46.119 44.1057C46.3752 44.1694 46.5916 44.3693 46.6974 44.6092C47.0135 45.2502 47.0526 45.9827 47.0486 46.6861C47.029 47.3339 46.9825 48.0142 46.6529 48.5889C46.3698 49.1628 45.7227 49.3857 45.1909 49.6615C45.172 49.7801 45.1592 49.9021 45.1221 50.0173C44.9455 50.083 44.7521 50.0918 44.5728 50.1548C44.4299 50.1799 44.4703 50.3649 44.4238 50.4692C44.2162 50.5004 44.0046 50.5085 43.7929 50.5065C43.7808 50.5587 43.7572 50.6624 43.7457 50.7145C43.5253 50.6895 43.3069 50.6305 43.0831 50.6231C42.9058 50.6258 42.9213 50.8426 42.8775 50.9639C42.6713 51.031 42.4529 51.0364 42.2358 51.031C42.252 51.2072 42.3376 51.4199 42.2035 51.5704ZM45.5562 46.5357C45.8771 45.9346 46.202 45.3024 46.2525 44.6112C46.1831 44.8057 46.1372 45.0076 46.0752 45.2041C45.8643 45.8784 45.4315 46.4476 45.0446 47.0269C44.3476 48.0651 43.6082 49.0727 42.8694 50.081C43.8138 48.9385 44.8464 47.8502 45.5562 46.5357Z" fill="black"/>
<path d="M133.213 50.105C132.766 50.1185 132.314 50.1714 131.912 50.3828C131.943 50.149 131.899 49.8671 132.067 49.6781C132.232 49.5859 132.437 49.6469 132.617 49.6266C132.597 49.4125 132.543 49.2024 132.534 48.9869C132.656 48.8568 132.813 48.7667 132.936 48.6373C132.872 48.3879 132.78 48.148 132.677 47.9122C132.756 47.8519 132.836 47.7923 132.915 47.734C132.931 47.505 132.886 47.2793 132.82 47.0605C132.931 46.9968 133.044 46.9371 133.157 46.8795C133.188 46.6369 133.196 46.3923 133.212 46.1484C133.335 46.1138 133.459 46.0813 133.581 46.0481C133.748 45.5195 133.889 44.9707 134.201 44.5052C134.61 44.0098 135.216 43.7252 135.828 43.5775C136.705 43.3478 137.619 43.196 138.525 43.2956C138.97 43.3546 139.488 43.5402 139.656 44.0017C139.621 44.4462 139.432 44.8602 139.276 45.2722C138.968 46.0196 138.903 46.8355 138.657 47.6012C138.552 47.6385 138.428 47.6439 138.339 47.7177C138.252 47.8438 138.221 47.9983 138.143 48.1291C138.028 48.23 137.864 48.228 137.722 48.2592C137.581 48.4306 137.464 48.6305 137.276 48.7552C137.14 48.8494 136.973 48.7633 136.821 48.7708C136.685 48.8412 136.573 48.9517 136.436 49.0228C136.298 49.0486 136.17 48.9585 136.04 48.9219C135.789 49.0316 135.585 49.2891 135.289 49.2553C135.053 49.237 134.842 49.3501 134.635 49.4443C134.498 49.4348 134.356 49.3976 134.219 49.4301C134.06 49.4965 133.938 49.6293 133.779 49.6964C133.679 49.7113 133.576 49.7106 133.474 49.7276C133.365 49.836 133.295 49.9762 133.213 50.105ZM135.921 46.3042C136.654 45.5941 137.39 44.8684 138.257 44.3222C138.543 44.1345 138.865 44.0166 139.159 43.8458C137.901 44.2524 136.85 45.1177 135.923 46.0379C135.216 46.7806 134.534 47.5483 133.895 48.35C134.566 47.6642 135.232 46.973 135.921 46.3042Z" fill="black"/>
<path d="M55.0293 50.3291C54.7354 50.2424 54.4462 50.1251 54.1382 50.098C54.002 50.0763 53.8551 50.0838 53.725 50.0255C53.6178 49.9313 53.5545 49.7992 53.4756 49.6806C53.3819 49.6949 53.2855 49.7098 53.1891 49.726C53.0011 49.6054 52.8171 49.4773 52.6216 49.3669C52.4093 49.438 52.1653 49.4861 51.9792 49.3228C51.8309 49.1819 51.6381 49.2151 51.4568 49.2585C51.2796 49.1399 51.1009 49.0213 50.9122 48.9197C50.7983 48.9637 50.6864 49.0159 50.5624 49.0362C50.4087 48.9725 50.286 48.8546 50.1424 48.7706C50.0332 48.7543 49.926 48.8051 49.8155 48.8234C49.6079 48.7394 49.4657 48.5653 49.343 48.3837C49.2351 48.1838 48.9541 48.2685 48.8078 48.1194C48.731 47.9879 48.704 47.8294 48.6069 47.7074C48.5166 47.6464 48.4034 47.6342 48.2982 47.601C48.067 46.878 47.9807 46.117 47.73 45.3994C47.5837 44.9969 47.4004 44.6046 47.3188 44.1811C47.2602 43.9819 47.366 43.7582 47.5136 43.6288C48.1115 43.3022 48.8139 43.2412 49.4818 43.2737C50.2631 43.3232 51.0362 43.4994 51.7648 43.786C52.2461 44.0035 52.7314 44.3288 52.9424 44.8363C53.1278 45.1833 53.2154 45.5675 53.3415 45.9368C53.3974 46.1055 53.6124 46.1035 53.7466 46.1678C53.7654 46.405 53.7708 46.6435 53.7985 46.88C53.9124 46.9417 54.058 46.9695 54.1281 47.0867C54.1139 47.2771 54.0485 47.4587 54.0209 47.6471C54.0836 47.7338 54.1786 47.7846 54.2609 47.8463C54.1665 48.118 54.0957 48.3979 54.0377 48.6798C54.1759 48.7896 54.3134 48.9 54.4348 49.0267C54.3909 49.2185 54.3518 49.4123 54.3384 49.6088C54.5258 49.6352 54.7442 49.5898 54.9012 49.7145C55.0468 49.8805 55.0124 50.1245 55.0293 50.3291ZM52.9647 48.2292C52.1632 47.2486 51.3335 46.283 50.3736 45.4536C49.6032 44.7977 48.7734 44.1614 47.8021 43.8457C48.1547 44.0544 48.5739 44.1479 48.8779 44.4372C49.8533 45.19 50.7565 46.0316 51.6361 46.8943C52.0931 47.3252 52.4949 47.8124 52.9647 48.2292Z" fill="black"/>
<path d="M144.906 44.7061C144.131 44.3835 143.426 43.8949 142.608 43.6815C142.187 43.5751 141.706 43.4721 141.434 43.0987C141.272 42.539 141.552 41.9671 141.881 41.5267C142.607 40.6119 143.573 39.9085 144.607 39.3847C145.379 39.0452 146.16 39.5006 146.881 39.7561C147.008 39.6795 147.135 39.6043 147.265 39.5358C147.443 39.6781 147.603 39.8645 147.826 39.9309C147.94 39.9011 148.047 39.853 148.155 39.8096C148.324 39.9688 148.484 40.1376 148.647 40.3022C148.733 40.2866 148.819 40.269 148.906 40.2622C149.109 40.4039 149.128 40.7 149.32 40.8538C149.468 40.931 149.621 40.8009 149.758 40.7583C149.956 40.9107 150.1 41.1269 150.323 41.2468C150.416 41.1181 150.509 40.9893 150.605 40.864C150.877 40.8667 151.12 40.9886 151.298 41.1919C150.903 41.385 150.523 41.6337 150.3 42.0281C150.13 42.02 149.961 42.0024 149.791 41.9773C149.729 42.0674 149.667 42.1582 149.605 42.2483C149.418 42.3019 149.231 42.3547 149.043 42.4089C148.925 42.6271 148.778 42.8541 148.521 42.9165C148.364 42.9483 148.291 43.0757 148.253 43.2214C148.06 43.3603 147.832 43.4287 147.603 43.483C147.568 43.6009 147.544 43.7228 147.487 43.8326C147.344 43.9132 147.173 43.9193 147.024 43.9864C146.885 44.0854 146.82 44.2581 146.683 44.3591C146.484 44.4086 146.278 44.3754 146.075 44.3672C145.967 44.4472 145.868 44.5448 145.742 44.5942C145.562 44.5881 145.402 44.4743 145.222 44.4804C145.099 44.5258 145.007 44.6254 144.906 44.7061ZM142.694 42.2605C143.488 42.0057 144.319 41.9095 145.141 41.7882C146.53 41.61 147.929 41.5165 149.326 41.4325C149.053 41.4155 148.779 41.4216 148.505 41.4284C146.951 41.4874 145.376 41.4616 143.856 41.8465C143.167 42.0179 142.475 42.2368 141.879 42.6325C142.154 42.518 142.41 42.3574 142.694 42.2605Z" fill="black"/>
<path d="M43.7956 43.8739C43.1761 44.065 42.651 44.4662 42.0518 44.7061C41.9534 44.643 41.8705 44.5082 41.735 44.5427C41.5395 44.5597 41.3461 44.5942 41.1493 44.6186C41.067 44.5319 40.9808 44.4465 40.8924 44.3632C40.6484 44.4215 40.3613 44.4662 40.1483 44.2947C40.1078 44.2141 40.0822 44.1267 40.0499 44.0406C39.8706 43.9634 39.6758 43.9295 39.4931 43.857C39.4291 43.7371 39.4035 43.5995 39.3313 43.483C39.1466 43.3955 38.9471 43.3413 38.7557 43.2675C38.6789 43.1184 38.602 42.951 38.4268 42.9002C38.1814 42.8074 38.021 42.5946 37.8707 42.3893C37.7062 42.3493 37.533 42.3242 37.3786 42.2463C37.2768 42.1684 37.198 42.06 37.0841 41.9942C36.9513 41.9929 36.8185 42.0159 36.683 42.0308C36.4019 41.6832 36.048 41.4101 35.6632 41.1858C35.8377 40.9934 36.0703 40.8728 36.3311 40.864C36.4343 40.9941 36.5098 41.1669 36.6742 41.2272C36.8549 41.0998 36.991 40.9229 37.1461 40.7691C37.295 40.8335 37.4494 40.8836 37.6091 40.8999C37.7217 40.704 37.8066 40.4879 37.9556 40.3171C38.05 40.2148 38.1915 40.2941 38.3054 40.2995C38.4241 40.1633 38.5231 40.0081 38.66 39.8902C38.8184 39.8015 38.9903 39.9227 39.144 39.9641C39.3017 39.8502 39.4419 39.7113 39.6104 39.6165C39.7755 39.5311 39.9286 39.6917 40.0688 39.754C40.5574 39.5833 41.0306 39.3569 41.5429 39.2668C42.0161 39.2106 42.4657 39.4071 42.8553 39.6564C43.4936 40.0346 44.0935 40.4818 44.6152 41.011C45.0284 41.4454 45.4382 41.9366 45.5488 42.5451C45.5784 42.7823 45.6162 43.0974 45.3796 43.2438C44.9064 43.5697 44.3342 43.6964 43.7956 43.8739ZM45.0716 42.6346C44.7649 42.4116 44.4117 42.2673 44.0598 42.1318C42.8816 41.713 41.6292 41.5416 40.3849 41.4914C39.4756 41.4792 38.567 41.4013 37.657 41.4298C39.0846 41.5273 40.5156 41.6114 41.9352 41.8059C42.7083 41.919 43.4882 42.0159 44.2357 42.2524C44.5296 42.3459 44.7905 42.5126 45.0716 42.6346Z" fill="black"/>
<path d="M46.3769 43.4238C47.0907 42.3261 47.8888 41.2873 48.6849 40.2485C49.3353 39.4089 50.0599 38.6209 50.8931 37.9609C50.0168 38.8221 49.2908 39.8182 48.5278 40.7784C47.8241 41.6708 47.1305 42.5727 46.3769 43.4238Z" fill="black"/>
<path d="M140.561 43.3936C138.899 41.5409 137.545 39.4186 135.745 37.688C136.666 38.4537 137.55 39.2757 138.273 40.2365C139.05 41.278 139.852 42.3033 140.561 43.3936Z" fill="black"/>
<path d="M160.506 40.0632C160.145 40.0747 159.691 40.0727 159.459 39.744C159.425 39.5265 159.547 39.3056 159.504 39.0806C159.169 39.0908 158.836 39.1301 158.502 39.1525C158.376 38.9729 158.335 38.6334 158.073 38.6219C157.736 38.7208 157.418 38.8936 157.059 38.9045C157.006 38.7899 156.952 38.6761 156.889 38.5657C156.57 38.6307 156.245 38.668 155.919 38.6619C155.875 38.5148 155.834 38.3664 155.786 38.2201C155.434 38.1679 155.08 38.1401 154.725 38.1083C154.683 37.9456 154.656 37.7803 154.632 37.615C154.215 37.3344 153.685 37.35 153.26 37.0898C153.029 36.9631 152.79 36.8472 152.567 36.7042C152.173 36.4345 151.907 36.0137 151.737 35.5733C151.513 35.0027 151.358 34.4058 151.24 33.804C151.041 32.873 150.928 31.9148 151.002 30.9621C151.058 30.3075 151.238 29.5791 151.813 29.1888C151.455 28.7449 151.085 28.3025 150.647 27.9352C148.665 26.1849 146.232 25.0241 143.719 24.2693C143.316 24.1487 142.906 24.0551 142.495 23.9643C143.41 23.9942 144.327 24.1568 145.242 24.0484C145.138 24.0843 144.929 24.1561 144.825 24.192C144.997 24.171 145.164 24.1134 145.338 24.108C145.919 24.1365 146.5 24.1893 147.081 24.2164C148.903 24.1927 150.723 24.0213 152.516 23.6987C153.795 23.4636 155.068 23.1946 156.333 22.893C155.617 22.1361 155.041 21.1881 154.936 20.1297C154.779 18.8978 155.174 17.6916 155.601 16.5546C155.972 15.5646 156.402 14.5868 156.609 13.5446C156.735 13.0161 156.537 12.4889 156.51 11.961C156.655 12.0484 156.79 12.1589 156.875 12.3073C157.669 13.6429 158.284 15.1018 158.566 16.6366C158.641 17.1407 158.74 17.6639 158.606 18.1666C158.257 19.7713 157.691 21.3365 156.884 22.7663C158.069 22.4736 159.253 22.1768 160.442 21.899C158.931 22.4573 157.419 23.0306 155.847 23.3884C154.181 23.7536 152.491 24.0172 150.788 24.127C149.579 24.234 148.364 24.2266 147.152 24.2388C146.508 24.2042 145.865 24.1493 145.219 24.1412C145.178 24.1805 145.136 24.2191 145.094 24.2571C145.617 24.4001 146.085 24.6833 146.573 24.9117C148.588 25.9593 150.444 27.3612 151.874 29.142C152.068 29.0878 152.271 29.0932 152.463 29.1542C153.3 29.4022 154.061 29.8528 154.905 30.0792C155.601 30.2811 156.338 30.3428 157.003 30.6436C157.006 30.752 157.007 30.8598 157.007 30.9675C157.243 31.2081 157.549 31.3531 157.828 31.5333C157.822 31.6817 157.787 31.8437 157.868 31.9779C158.024 32.2442 158.356 32.335 158.523 32.5918C158.613 32.7856 158.496 32.995 158.455 33.1867C158.624 33.4009 158.788 33.6197 158.911 33.8637C158.835 34.0195 158.718 34.1733 158.722 34.3536C158.767 34.6111 158.975 34.794 159.063 35.0332C159.115 35.227 158.981 35.4256 159.055 35.6167C159.138 35.8769 159.242 36.1303 159.328 36.3892C159.288 36.4847 159.247 36.5802 159.206 36.6751C159.316 36.8953 159.466 37.0912 159.583 37.3073C159.68 37.4794 159.62 37.6793 159.592 37.8603C159.792 37.9938 159.997 38.1205 160.181 38.2763C160.025 38.8923 160.226 39.517 160.506 40.0632ZM158.036 37.4957C157.647 37.0349 157.199 36.629 156.782 36.1953C155.436 34.8076 154.096 33.4042 152.946 31.8444C152.645 31.4371 152.364 31.0109 152.167 30.5427C152.069 30.2946 151.996 30.0372 151.877 29.798C151.993 30.4729 152.287 31.1044 152.638 31.6865C153.258 32.7429 154.068 33.6719 154.911 34.5535C155.922 35.5658 156.95 36.564 158.036 37.4957Z" fill="black"/>
<path d="M27.2105 39.9457C26.9907 40.105 26.7049 40.0528 26.4495 40.063C26.7292 39.5182 26.9314 38.8954 26.7737 38.2808C26.9564 38.123 27.1606 37.9956 27.3628 37.8668C27.3358 37.6886 27.2792 37.4921 27.3662 37.32C27.4801 37.1004 27.6378 36.906 27.743 36.6817C27.6985 36.5373 27.6439 36.3923 27.6385 36.2392C27.7032 36.0244 27.8272 35.834 27.8967 35.6205C27.9883 35.4254 27.8266 35.2153 27.8987 35.0161C27.987 34.8047 28.1548 34.6353 28.2229 34.415C28.2748 34.2131 28.1245 34.0362 28.0436 33.8634C28.1697 33.6188 28.3361 33.4006 28.502 33.1831C28.4581 32.99 28.3368 32.7711 28.4413 32.5787C28.6139 32.3849 28.8774 32.2968 29.0378 32.0901C29.1646 31.9356 29.0675 31.7229 29.1255 31.5473C29.3782 31.3251 29.7193 31.2153 29.9303 30.9449C29.962 30.8467 29.9586 30.7423 29.9687 30.6407C30.5969 30.3514 31.2959 30.2965 31.9538 30.104C32.7754 29.898 33.5196 29.4786 34.3183 29.2062C34.4923 29.1472 34.6742 29.1154 34.8542 29.0978C34.9634 29.1357 35.0739 29.131 35.1791 29.0971C35.1926 29.1743 35.202 29.2509 35.2088 29.3275L35.2472 29.2489C35.7885 29.7279 35.9361 30.4821 35.9698 31.1733C36.021 32.4106 35.7965 33.6439 35.4676 34.8324C35.2971 35.4145 35.1009 36.0237 34.6682 36.4675C34.4087 36.7501 34.0447 36.8917 33.7184 37.0781C33.2877 37.3498 32.7431 37.3268 32.3211 37.6208C32.3016 37.7855 32.2739 37.9502 32.2274 38.1094C31.9255 38.1399 31.6208 38.1514 31.3202 38.2009C31.0802 38.2043 31.1078 38.5072 31.0242 38.6691C30.7007 38.6637 30.3779 38.6257 30.0577 38.5695C30.0017 38.6786 29.9519 38.7904 29.9 38.9022C29.5306 38.8941 29.2037 38.7145 28.8579 38.6122C28.5694 38.5898 28.5721 38.9469 28.4898 39.1387C28.1501 39.1733 27.8124 39.1082 27.474 39.0764C27.3244 39.3508 27.5037 39.756 27.2105 39.9457ZM30.5336 36.0339C31.9612 34.6861 33.3841 33.2834 34.3837 31.5738C34.6769 31.0317 34.9755 30.4672 35.0537 29.8479C34.9459 30.0749 34.8805 30.3195 34.7855 30.5526C34.5792 31.0385 34.2833 31.4789 33.9685 31.9004C32.489 33.8906 30.7176 35.6334 28.9927 37.404C29.5299 36.9744 30.0186 36.4885 30.5336 36.0339Z" fill="black"/>
<path d="M67.251 34.0397C66.0815 35.4945 64.941 36.9792 63.9616 38.5723C64.5069 37.4115 65.2214 36.3321 66.0518 35.357C66.4482 34.9152 66.8337 34.4618 67.251 34.0397Z" fill="black"/>
<path d="M183.89 32.4043C183.64 32.3724 183.345 32.3819 183.153 32.1895C183.108 32.0397 183.107 31.8805 183.067 31.7287C182.857 31.6725 182.64 31.7158 182.429 31.7314C182.34 31.5945 182.247 31.4597 182.15 31.3289C181.882 31.3987 181.627 31.5146 181.354 31.5593C181.286 31.499 181.23 31.4265 181.17 31.3574C180.936 31.4014 180.697 31.4292 180.457 31.4136C180.399 31.3059 180.375 31.1643 180.274 31.0863C180.035 31.0511 179.791 31.0674 179.551 31.0301C179.5 30.8959 179.527 30.6953 179.378 30.6228C179.108 30.4839 178.794 30.4704 178.52 30.341C178.213 30.1919 177.871 30.0652 177.659 29.7799C176.988 28.9654 176.78 27.8907 176.656 26.8688C176.568 26.1472 176.556 25.3571 176.939 24.712C177.056 24.5175 177.228 24.2776 177.491 24.3379C178.034 24.4233 178.537 24.6652 179.05 24.8529C179.687 25.1131 180.374 25.1965 181.04 25.3516C181.071 25.4533 181.1 25.5549 181.131 25.6566C181.337 25.7853 181.541 25.9188 181.736 26.0652C181.746 26.175 181.747 26.2854 181.773 26.3918C181.934 26.5537 182.13 26.6744 182.301 26.8261C182.291 26.9651 182.27 27.1046 182.286 27.2436C182.329 27.4001 182.447 27.5193 182.52 27.6616C182.622 27.81 182.46 27.9578 182.413 28.0953C182.514 28.2898 182.631 28.4748 182.752 28.6571C182.642 28.9789 182.818 29.2744 182.949 29.5563C182.927 29.6816 182.882 29.8077 182.895 29.9357C182.979 30.1106 183.109 30.2576 183.219 30.4162C183.22 30.5239 183.215 30.6323 183.232 30.7387C183.335 30.8458 183.465 30.9203 183.569 31.024C183.611 31.1819 183.6 31.3492 183.625 31.5098C183.653 31.8066 183.784 32.077 183.89 32.3501L183.89 32.4043ZM182.458 30.8973C182.178 30.572 181.83 30.3186 181.526 30.0184C181.093 29.5983 180.647 29.1904 180.229 28.7546C179.365 27.8792 178.496 26.9956 177.789 25.9832C177.565 25.6789 177.435 25.3212 177.274 24.9823C177.563 25.9635 178.202 26.7929 178.854 27.5593C179.929 28.8021 181.218 29.8293 182.458 30.8973Z" fill="black"/>
<path d="M3.7859 32.2479C3.56886 32.3306 3.3417 32.3807 3.10983 32.4092L3.10983 32.3001C3.23924 31.9125 3.41045 31.5154 3.32822 31.0973C3.47313 30.9753 3.62009 30.8581 3.7677 30.7422C3.73063 30.5071 3.74545 30.2638 3.93757 30.0992C4.17281 29.9169 3.92476 29.6045 4.1054 29.3917C4.26246 29.1742 4.26919 28.9093 4.19841 28.6579C4.32987 28.4722 4.45185 28.2798 4.55634 28.0778C4.48961 27.9694 4.42288 27.861 4.35277 27.7519C4.46668 27.5933 4.59814 27.447 4.69182 27.2762C4.7289 27.1346 4.6352 26.9855 4.66958 26.8419C4.80103 26.6528 5.02615 26.5634 5.18051 26.3967C5.20814 26.2896 5.21354 26.1792 5.22231 26.0687C5.41643 25.9271 5.61663 25.7943 5.81413 25.6574C5.85186 25.5646 5.88354 25.469 5.92669 25.3789C6.02982 25.3057 6.16126 25.2908 6.27652 25.2562C7.20739 25.0428 8.14499 24.8314 9.02395 24.4485C9.2538 24.336 9.51196 24.3394 9.75866 24.3618C9.93325 24.5719 10.1206 24.7833 10.2022 25.0496C10.4617 26.0138 10.3208 27.0316 10.1105 27.9911C9.9474 28.7135 9.6542 29.4385 9.12034 29.965C8.6876 30.2882 8.14363 30.3933 7.65225 30.5945C7.46083 30.6555 7.48106 30.9062 7.35028 31.0235C7.13391 31.1048 6.89595 31.0607 6.66813 31.0621C6.60948 31.1786 6.55557 31.2979 6.50029 31.4172C6.25493 31.4287 6.00891 31.3995 5.76759 31.3487C5.71838 31.4287 5.6665 31.508 5.61257 31.5872C5.34497 31.4951 5.0794 31.3772 4.79226 31.3555C4.68845 31.47 4.62442 31.6137 4.54354 31.7458C4.30964 31.7451 4.0454 31.6171 3.825 31.7261C3.79466 31.8983 3.79804 32.0744 3.7859 32.2479ZM8.54874 27.0363C9.0098 26.4373 9.45803 25.7949 9.6488 25.0523C9.37108 25.799 8.86554 26.4238 8.33912 27.0079C7.50194 27.9057 6.6796 28.8192 5.78783 29.6628C5.39823 30.0382 4.95672 30.3621 4.61902 30.7897C6.0015 29.6201 7.40825 28.4553 8.54874 27.0363Z" fill="black"/>
<path d="M35.321 29.0234C35.2967 28.995 35.2711 28.9665 35.2434 28.9367C35.8386 28.3106 36.3893 27.6282 37.085 27.1071C36.4871 27.7346 35.8083 28.2984 35.321 29.0234Z" fill="black"/>
<path d="M137.303 23.9365C136.889 23.9704 136.474 24.0138 136.058 24.0361C138.16 23.6316 140.344 23.5523 142.452 23.9609C140.738 23.8627 139.017 23.82 137.303 23.9365Z" fill="black"/>
<path d="M176.721 23.8252C176.125 23.3292 175.527 22.8298 174.86 22.4313C173.545 21.5952 172.045 21.0734 170.509 20.8491C168.731 20.5855 166.921 20.6885 165.15 20.9419C163.602 21.1757 162.071 21.5064 160.547 21.8628C162.967 20.9745 165.42 20.0082 168.02 19.8666C167.477 19.0453 167.248 18.0499 167.194 17.0761C167.176 16.4697 167.237 15.8246 167.563 15.2987C167.841 14.964 168.207 14.7194 168.561 14.4747C168.747 14.3765 168.712 14.1481 168.74 13.972C168.95 13.9001 169.185 13.8649 169.359 13.7151C169.384 13.6176 169.382 13.5146 169.395 13.4136C169.614 13.3689 169.833 13.3289 170.051 13.2794C170.054 13.2259 170.06 13.1175 170.064 13.0639C170.313 13.0578 170.563 13.0612 170.812 13.066C170.87 12.9271 170.904 12.7739 170.994 12.6499C171.143 12.5835 171.313 12.5815 171.461 12.5097C171.564 12.3945 171.46 12.2264 171.455 12.0922C171.588 11.8822 171.808 11.7717 172.042 11.7135C171.952 12.118 172.012 12.53 172.135 12.9196C172.061 13.0185 171.972 13.1073 171.92 13.2205C171.899 13.3302 171.946 13.438 171.965 13.5444C171.913 13.7206 171.859 13.8954 171.818 14.0736C172.01 14.3135 171.944 14.6198 171.895 14.8955C171.937 14.9877 171.984 15.0771 172.009 15.1747C171.977 15.357 171.916 15.5332 171.88 15.7141C171.958 15.7846 172.037 15.8544 172.114 15.9242C172.045 16.1098 171.981 16.2982 171.954 16.4947C172.006 16.6099 172.132 16.7305 172.064 16.8654C171.992 17.005 171.882 17.1188 171.804 17.2543C171.714 17.3682 171.812 17.5051 171.83 17.6257C171.643 17.8364 171.339 18.0377 171.428 18.3636C170.993 18.6041 170.554 18.8386 170.129 19.0981C169.773 19.3204 169.466 19.6097 169.135 19.8652C170.47 19.9296 171.764 20.3538 172.948 20.9623C174.354 21.6927 175.639 22.6638 176.721 23.8252ZM168.361 19.7615C168.449 18.8522 168.768 17.9875 169.148 17.1642C169.645 16.0441 170.289 15.0006 170.85 13.915C170.399 14.5615 169.988 15.2364 169.608 15.9269C169.072 16.9447 168.56 18.0004 168.375 19.1476C168.348 19.3502 168.31 19.5596 168.361 19.7615Z" fill="black"/>
<path d="M141.094 22.9775C140.868 23.1564 140.567 23.2764 140.279 23.1923C139.953 23.1076 139.713 22.8413 139.545 22.5601C139.2 21.9808 139.075 21.3065 138.954 20.6513C138.834 19.8056 138.782 18.9464 138.856 18.0939C138.906 17.5776 139.032 17.0416 139.367 16.6323C139.667 16.2935 140.036 16.0231 140.416 15.7826C140.6 15.6633 140.83 15.5807 140.941 15.3787C140.953 15.2452 140.938 15.1104 140.949 14.9755C141.232 14.8488 141.549 14.8061 141.807 14.6239C141.809 14.5005 141.812 14.3772 141.818 14.2525C142.103 14.1875 142.403 14.1827 142.68 14.0838C142.713 13.9876 142.735 13.8873 142.761 13.7877C143.117 13.8087 143.474 13.829 143.83 13.7911C143.883 13.6142 143.801 13.3316 144.03 13.2645C144.268 13.1717 144.529 13.1765 144.776 13.1222C144.748 12.9081 144.67 12.6879 144.72 12.4711C144.843 12.2413 145.126 12.1499 145.372 12.1587C145.386 12.4446 145.328 12.7279 145.336 13.0131C145.344 13.2435 145.451 13.4529 145.548 13.6555C145.436 13.8385 145.284 13.9896 145.121 14.1272C145.17 14.2708 145.284 14.4077 145.241 14.5662C145.203 14.7587 145.114 14.9349 145.038 15.1138C145.144 15.437 145.238 15.7765 145.16 16.118C145.095 16.3416 145.307 16.5185 145.284 16.74C145.245 16.9698 145.141 17.1805 145.079 17.4041C145.159 17.5173 145.255 17.623 145.301 17.7551C145.31 17.9557 145.202 18.1373 145.132 18.3189C145.187 18.4917 145.258 18.6618 145.28 18.8434C145.236 19.1131 144.994 19.2832 144.87 19.5129C144.842 19.6504 144.903 19.7846 144.929 19.9174C144.75 20.122 144.565 20.3199 144.382 20.5198C144.393 20.6987 144.413 20.9386 144.213 21.0219C143.501 21.3838 142.771 21.7192 142.106 22.1664C141.738 22.3961 141.433 22.7085 141.094 22.9775ZM140.387 21.6006C140.592 20.8871 140.907 20.2101 141.255 19.5562C141.853 18.4199 142.451 17.2835 143.082 16.1648C143.399 15.601 143.755 15.0596 144.067 14.4931C143.613 15.1517 143.168 15.8158 142.721 16.4792C141.8 17.9754 140.889 19.5081 140.387 21.2062C140.258 21.6785 140.161 22.1745 140.236 22.6645C140.306 22.3121 140.281 21.9462 140.387 21.6006Z" fill="black"/>
<path d="M19.1967 19.4198C19.0504 19.6841 18.9156 20.0141 18.6062 20.1178C18.2793 20.2838 17.982 19.9734 17.736 19.7911C17.0869 19.1901 16.2895 18.7971 15.5278 18.3634C15.6202 18.0327 15.3027 17.8274 15.1106 17.6146C15.1362 17.5584 15.1874 17.4459 15.213 17.3897C15.1079 17.1904 14.9663 17.0122 14.8699 16.8076C14.8989 16.6707 14.9852 16.5481 14.9886 16.4058C14.9656 16.2397 14.8969 16.0846 14.8396 15.9267C14.9198 15.8562 14.9993 15.7857 15.0755 15.7139C15.0209 15.4395 14.8713 15.1522 15.0593 14.8947C15.0095 14.6175 14.9522 14.3173 15.1369 14.0748C15.0991 13.8938 15.0459 13.7163 14.9892 13.5394C15.0108 13.4337 15.0614 13.328 15.0384 13.2182C14.9825 13.1085 14.8982 13.017 14.8207 12.9201C14.9454 12.5278 15.0007 12.1151 14.9164 11.7072C15.0883 11.7736 15.2959 11.7959 15.4098 11.9545C15.5278 12.1225 15.4948 12.3482 15.5966 12.5203C15.726 12.5908 15.8729 12.6165 16.0104 12.6551C16.0461 12.7771 16.0697 12.9011 16.119 13.0163C16.3326 13.1064 16.5692 13.0326 16.7903 13.0604C16.8537 13.1268 16.8948 13.2074 16.9406 13.2819C17.1442 13.3334 17.3504 13.3721 17.5533 13.4148C17.5783 13.5239 17.5965 13.633 17.6295 13.7366C17.8102 13.8498 18.0218 13.8932 18.2166 13.9677C18.249 14.1378 18.2031 14.3634 18.3784 14.4644C18.6406 14.6514 18.9156 14.8215 19.1475 15.0471C19.5748 15.3805 19.688 15.9538 19.748 16.464C19.8215 17.473 19.626 18.505 19.1967 19.4198ZM18.5995 19.7552C18.6493 19.1386 18.464 18.5362 18.2732 17.9582C17.7138 16.3963 16.8274 14.9821 15.9167 13.6058C16.5632 14.7761 17.2284 15.9369 17.7973 17.1478C18.1842 17.9738 18.5179 18.8384 18.5995 19.7552Z" fill="black"/>
<path d="M106.857 17.3615C106.671 17.5147 106.562 17.7396 106.427 17.9375C106.285 17.8826 106.104 17.8657 106.006 17.7315C105.948 17.5973 105.94 17.4483 105.915 17.3046C105.653 17.4367 105.373 17.5343 105.076 17.5445C105.145 17.2321 105.215 16.9157 105.218 16.5931C105.168 16.3736 105.041 16.1676 105.058 15.9345C105.186 15.782 105.364 15.6892 105.526 15.5814C105.517 14.939 105.743 14.3231 105.747 13.6834C105.854 13.5208 105.985 13.3758 106.131 13.247C106.007 13.0336 105.827 12.8649 105.63 12.7192C105.892 12.3383 105.917 11.8091 106.303 11.5177C106.833 11.0881 107.527 10.9479 108.188 10.8821C108.925 10.8293 109.68 10.8706 110.39 11.0902C110.838 11.2569 111.27 11.4608 111.708 11.6492C111.78 12.9685 111.72 14.3353 111.207 15.5692C110.941 16.1554 110.573 16.7544 109.974 17.041C109.448 17.2809 108.852 17.2687 108.288 17.2402C107.982 17.1874 107.916 16.837 107.823 16.5911C107.763 16.816 107.754 17.0959 107.533 17.2301C107.326 17.3412 107.075 17.2816 106.857 17.3615Z" fill="black"/>
<path d="M80.9476 17.7317C80.8518 17.8639 80.6746 17.8822 80.5323 17.9404C80.405 17.7487 80.2931 17.5406 80.1245 17.38C79.894 17.2587 79.5813 17.3726 79.3716 17.1896C79.191 17.0446 79.1903 16.7966 79.135 16.5906C79.0724 16.6997 79.0427 16.8217 79.0225 16.9443C78.889 17.0819 78.7427 17.2445 78.5338 17.2459C77.9278 17.2709 77.2652 17.2615 76.7442 16.9037C76.2609 16.5655 75.9515 16.0356 75.7203 15.503C75.2343 14.2847 75.177 12.9464 75.2464 11.6508C75.8861 11.3879 76.5022 11.0335 77.1972 10.942C78.0876 10.8065 79.0164 10.8254 79.8785 11.1026C80.2654 11.2408 80.6638 11.4407 80.8984 11.7917C81.0588 12.0933 81.1424 12.43 81.3244 12.7201C81.1262 12.8685 80.9455 13.0413 80.8195 13.2574C80.9658 13.3835 81.1538 13.4905 81.2131 13.6863C81.2388 13.9032 81.1882 14.1268 81.2657 14.3375C81.3931 14.7387 81.3897 15.1608 81.4147 15.5755C81.592 15.6846 81.7645 15.8012 81.9209 15.9374C81.8879 16.1664 81.7949 16.3799 81.7369 16.6015C81.7423 16.9206 81.811 17.2344 81.8791 17.5447C81.5845 17.5312 81.3028 17.4376 81.0413 17.3035C81.015 17.4471 81.0129 17.5989 80.9476 17.7317Z" fill="black"/>
<path d="M115.997 15.8908C115.814 16.0616 115.69 16.2798 115.577 16.5C115.285 16.3828 114.97 16.374 114.662 16.334C114.297 16.1585 113.98 15.8786 113.791 15.5154C113.465 15.1583 113.34 14.6799 113.205 14.2266C113.07 13.7394 113.01 13.2352 112.952 12.7338C112.929 12.065 113.148 11.4233 113.234 10.766C113.866 10.6183 114.493 10.4326 115.142 10.3784C116.11 10.2923 117.127 10.3093 118.029 10.7138C118.573 10.9544 119.009 11.4287 119.187 12.0006C119.288 12.3306 119.381 12.6674 119.414 13.0109C119.369 13.2847 119.092 13.4074 118.882 13.5395C119.092 13.5388 119.333 13.4738 119.51 13.6242C119.754 13.7936 119.667 14.1568 119.864 14.3574C120.039 14.4936 120.262 14.5383 120.471 14.5939C120.468 14.745 120.512 14.9239 120.399 15.0452C120.283 15.1488 120.132 15.1983 119.994 15.264C120.155 15.4958 120.292 15.7451 120.368 16.0182C120.045 16.0372 119.716 16.0148 119.397 16.0833C119.204 16.189 119.023 16.315 118.823 16.4092C118.652 16.3008 118.525 16.1415 118.375 16.0094C118.012 16.0189 117.655 16.1077 117.29 16.0894C117.057 16.0765 116.829 16.1192 116.603 16.1653C116.364 16.2039 116.167 16.0338 115.997 15.8908Z" fill="black"/>
<path d="M72.3153 16.3265C72.0039 16.3794 71.679 16.376 71.3797 16.5C71.2671 16.2818 71.1465 16.0623 70.9638 15.8935C70.7704 16.0568 70.5237 16.2283 70.2567 16.147C69.9237 16.0595 69.578 16.107 69.2389 16.0731C69.0158 16.0528 68.7934 16.023 68.5689 15.9986C68.4442 16.1564 68.3006 16.3001 68.1288 16.4078C67.9286 16.3116 67.7452 16.1829 67.5491 16.0792C67.2356 16.0189 66.9134 16.0345 66.5953 16.0196C66.6735 15.7485 66.8002 15.4951 66.96 15.2633C66.8319 15.2024 66.6937 15.1536 66.5791 15.0641C66.443 14.9496 66.4915 14.7545 66.4827 14.5979C66.7052 14.5369 66.9404 14.4834 67.1231 14.3343C67.2687 14.1595 67.2875 13.919 67.324 13.7021C67.5525 13.5605 67.8086 13.4941 68.0762 13.5436C67.8605 13.3985 67.5309 13.2569 67.5471 12.9472C67.6394 12.4038 67.7526 11.8346 68.087 11.3819C68.3815 10.9801 68.8291 10.7179 69.2969 10.5702C70.1469 10.2964 71.0555 10.3025 71.9351 10.3886C72.5431 10.4489 73.1296 10.6257 73.7214 10.7667C73.8205 11.531 74.111 12.294 73.9634 13.0719C73.8858 13.7638 73.7301 14.4502 73.4531 15.0899C73.3607 15.2986 73.1848 15.4538 73.0749 15.653C72.9118 15.9599 72.6092 16.1598 72.3153 16.3265Z" fill="black"/>
<path d="M78.7364 10.165C77.4901 10.5268 76.1649 10.4441 74.897 10.2503C74.6955 9.5307 74.3753 8.8253 74.3868 8.06434C74.3922 7.33793 74.4784 6.60949 74.6537 5.90545C74.9085 5.44195 75.1053 4.90461 75.5771 4.61526C75.896 4.48923 76.2391 4.43502 76.5491 4.28459C76.69 4.48448 76.8383 4.68167 77.0284 4.83685C77.1719 4.69997 77.3175 4.52988 77.5245 4.50278C78.148 4.5265 78.7661 4.36658 79.3889 4.46551C79.5264 4.28458 79.6713 4.10096 79.885 4.00812C80.0663 4.08469 80.2355 4.19243 80.4236 4.24732C80.7464 4.27645 81.0686 4.22563 81.3901 4.2175C81.3443 4.50278 81.2223 4.76569 81.0841 5.01641C81.221 5.05978 81.3679 5.08214 81.4886 5.16007C81.6018 5.28068 81.5863 5.46364 81.6187 5.61407C81.3969 5.70962 81.1461 5.79296 80.9992 5.99964C80.8833 6.17243 80.9109 6.39198 80.9021 6.58849C80.6952 6.74569 80.46 6.86157 80.1944 6.86834C80.2975 6.91307 80.402 6.95372 80.5058 6.99099C80.6089 7.13126 80.7842 7.25662 80.7579 7.45042C80.7188 8.05824 80.6743 8.72027 80.2847 9.21832C79.8985 9.70485 79.3114 9.97455 78.7364 10.165Z" fill="black"/>
<path d="M112.055 10.2538C110.732 10.4245 109.337 10.5512 108.052 10.0993C107.483 9.90276 106.924 9.57614 106.596 9.05302C106.293 8.57937 106.225 8.00001 106.199 7.44978C106.175 7.25801 106.35 7.13198 106.451 6.99307C106.558 6.95309 106.664 6.90972 106.769 6.86296C106.502 6.86093 106.261 6.7498 106.053 6.5892C106.047 6.38998 106.073 6.16502 105.951 5.9929C105.804 5.79165 105.558 5.70898 105.338 5.61547C105.371 5.46775 105.357 5.29428 105.456 5.16959C105.576 5.07879 105.734 5.06388 105.873 5.01645C105.728 4.76844 105.628 4.49807 105.591 4.21144C105.915 4.22974 106.242 4.2853 106.566 4.2399C106.74 4.17892 106.899 4.08473 107.065 4.00816C107.286 4.0976 107.433 4.28598 107.574 4.46758C108.185 4.36187 108.792 4.52789 109.404 4.50079C109.625 4.51298 109.779 4.69458 109.928 4.83553C110.116 4.67764 110.272 4.48656 110.411 4.2853C110.715 4.43235 111.05 4.48859 111.363 4.60785C111.732 4.82875 111.958 5.21025 112.136 5.59107C112.367 5.91836 112.396 6.32629 112.46 6.70847C112.555 7.35966 112.623 8.02847 112.517 8.68169C112.4 9.21565 112.216 9.732 112.055 10.2538Z" fill="black"/>
</svg>
